<?xml version="1.0" encoding="UTF-8" standalone="no"?>
<svg
   width="16px"
   height="16px"
   viewBox="0 0 16 16"
   version="1.1"
   id="svg5556"
   sodipodi:docname="gxde-deb-installer-16px.svg"
   inkscape:version="1.2.2 (b0a8486541, 2022-12-01)"
   xmlns:inkscape="http://www.inkscape.org/namespaces/inkscape"
   xmlns:sodipodi="http://sodipodi.sourceforge.net/DTD/sodipodi-0.dtd"
   xmlns="http://www.w3.org/2000/svg"
   xmlns:svg="http://www.w3.org/2000/svg">
  <sodipodi:namedview
     id="namedview5558"
     pagecolor="#505050"
     bordercolor="#eeeeee"
     borderopacity="1"
     inkscape:showpageshadow="0"
     inkscape:pageopacity="0"
     inkscape:pagecheckerboard="0"
     inkscape:deskcolor="#505050"
     showgrid="false"
     inkscape:zoom="39.5"
     inkscape:cx="8.0126582"
     inkscape:cy="8"
     inkscape:window-width="1600"
     inkscape:window-height="782"
     inkscape:window-x="0"
     inkscape:window-y="24"
     inkscape:window-maximized="1"
     inkscape:current-layer="svg5556" />
  <!-- Generator: Sketch 44.1 (41455) - http://www.bohemiancoding.com/sketch -->
  <title
     id="title5531">软件包安装器-16px</title>
  <desc
     id="desc5533">Created with Sketch.</desc>
  <defs
     id="defs5535" />
  <g
     id="g5554"
     stroke="none"
     stroke-width="1"
     fill="none"
     fill-rule="evenodd">
    <g
       id="软件包安装器-16px">
      <g
         id="Group-2"
         transform="translate(0.000000, 2.000000)">
        <g
           id="Group"
           transform="translate(3.000000, 0.000000)">
          <polygon
             id="path14361"
             fill="#D70751"
             points="0 12 0 0 10 0 10 12" />
          <path
             d="M7.18400169,4.66902952 L7.07615293,4.72266201 C6.98798869,4.8939857 7.08491073,4.83142829 7.02176953,4.96763661 C6.8839766,5.08999869 6.60422018,5.35040413 6.5146381,5.37425923 C6.44916137,5.37283366 6.55892865,5.29702172 6.57327519,5.26741128 C6.38902297,5.39386063 6.42538975,5.45725208 6.14354788,5.53423916 C5.4405704,5.84277198 4.47535263,5.19492813 4.48803074,4.31111808 C4.48068992,4.3671694 4.46692786,4.35315657 4.45158066,4.3756773 C4.41571455,3.92101059 4.66160666,3.46434191 5.07631999,3.27758755 C5.48194162,3.0769035 5.95746079,3.15914561 6.24781039,3.43014388 C6.08833095,3.22111904 5.77062313,2.99949922 5.39436135,3.02001797 C5.025607,3.02602425 4.68054045,3.26032168 4.56543485,3.51480482 C4.37659521,3.63366379 4.35457498,3.97322506 4.27233287,4.03544875 C4.16148148,4.84952838 4.48060731,5.2011005 5.02051875,5.61489649 C5.10526316,5.67211557 5.04437401,5.68087354 5.05571759,5.72441351 C4.87638667,5.64050331 4.71223617,5.51372042 4.57711232,5.35849484 C4.6488449,5.46334098 4.72616587,5.56526762 4.82617418,5.64534115 C4.6569356,5.58820537 4.43097844,5.23554878 4.36516799,5.2212024 C4.65668553,5.7431807 5.5477519,6.13662471 6.01459657,5.94136245 C5.79856514,5.94936968 5.5242307,5.94578343 5.28167476,5.85611754 C5.17949787,5.80365282 5.04112097,5.69513662 5.06589375,5.67486812 C5.70281104,5.91266935 6.36058063,5.85486648 6.91158541,5.41321161 C7.05188081,5.30394484 7.20502128,5.11819113 7.24931165,5.11568882 C7.18266715,5.21594738 7.26073853,5.16389985 7.20952522,5.25239763 C7.34898658,5.02710774 7.14871937,5.16064681 7.35382407,4.86337426 L7.42956043,4.96763661 C7.40120105,4.78046505 7.66185656,4.55342343 7.63533222,4.25765237 C7.69513707,4.16723608 7.70197671,4.35507507 7.63858527,4.56309909 C7.72658272,4.3323041 7.66185656,4.29518675 7.68437712,4.10467885 C7.70864941,4.16873757 7.7409291,4.2367166 7.75736059,4.30436192 C7.69997491,4.08124078 7.81599785,3.92876758 7.84485772,3.79906535 C7.8163314,3.78655298 7.75635994,3.89765582 7.74251372,3.63424758 C7.74459883,3.51980943 7.77445969,3.57427596 7.78588691,3.54608352 C7.76353296,3.5331555 7.70456215,3.44540795 7.66877968,3.27717036 C7.69455311,3.2375507 7.73817638,3.37968114 7.77354217,3.38543632 C7.75077137,3.25173048 7.71165221,3.14972019 7.70998395,3.04704281 C7.60655582,2.83101138 7.67336692,3.07590268 7.58962349,2.95429116 C7.47952267,2.61114329 7.68087383,2.87463483 7.69455311,2.71882528 C7.86120608,2.96029658 7.95620978,3.33480663 8,3.48986526 C7.96663602,3.30077538 7.91283659,3.11752414 7.84702613,2.94027833 C7.89782277,2.9617146 7.76536799,2.55133843 7.91300353,2.82308762 C7.75544242,2.2438066 7.23921931,1.70247715 6.76420029,1.44857763 C6.82217011,1.5017098 6.8954873,1.56843759 6.86929684,1.57894713 C6.63291328,1.43840165 6.67445144,1.42730814 6.64058713,1.36792048 C6.4483275,1.28959869 6.43548244,1.37434241 6.30828252,1.36808726 C5.94544994,1.17557738 5.8755524,1.19601283 5.54166334,1.07556907 L5.55684308,1.14663421 C5.31653971,1.06656085 5.27683641,1.17682862 5.01718189,1.14680115 C5.00141647,1.13453954 5.10042481,1.10209342 5.18199948,1.09033264 C4.94961987,1.12102738 4.96046313,1.04445732 4.7330883,1.09875724 C4.78905614,1.05947113 4.8484438,1.03336398 4.90816536,1 C4.71874158,1.01151104 4.45575071,1.11026777 4.53690818,1.02035197 C4.22787504,1.15831185 3.67895521,1.35190585 3.37092305,1.64075396 L3.36124807,1.57602797 C3.22011846,1.74543333 2.74576722,2.08199181 2.7079826,2.30160965 L2.6701978,2.31036745 C2.59688061,2.43473135 2.54925355,2.57561055 2.49103349,2.70347774 C2.39502879,2.86721122 2.35023793,2.76653547 2.36391704,2.79222577 C2.17499393,3.17524354 2.08099122,3.49703845 2,3.76111379 C2.05771975,3.84744281 2.00142557,4.28092367 2.023188,4.62782491 C1.92843472,6.34139551 3.22579033,8.00500369 4.64392359,8.38902245 C4.85178066,8.46350741 5.16081415,8.46083833 5.42372172,8.46817829 C5.11360411,8.37943026 5.07356744,8.42121867 4.77129029,8.31587204 C4.55334053,8.21311118 4.50563017,8.0959203 4.35115533,7.96188091 L4.41229455,8.06989645 C4.10951708,7.96271496 4.23621651,7.9372749 3.98982424,7.85928683 L4.05513403,7.77412539 C3.95696041,7.76661797 3.79514561,7.60880713 3.75093837,7.52114357 L3.64350646,7.52539794 C3.51455497,7.36641883 3.44574224,7.25156365 3.45083015,7.16256537 L3.41613163,7.22445551 C3.37684569,7.15697697 2.9414465,6.62740829 3.16732001,6.75068789 C3.125365,6.71248608 3.06956376,6.68838074 3.00909181,6.57836322 L3.05505044,6.5258985 C2.9465344,6.38602029 2.855034,6.20677267 2.86204041,6.14705111 C2.92001006,6.22528961 2.96021351,6.2399697 3.00008359,6.25339874 C2.72558202,5.57244132 2.71015101,6.21594784 2.50237724,5.56026336 L2.54625093,5.55675955 C2.5126367,5.50579614 2.49203448,5.45082912 2.46500964,5.39669614 L2.48419385,5.20610477 C2.28667953,4.97789555 2.42897675,4.23479775 2.4575862,3.82734091 C2.4771876,3.6616891 2.62248727,3.48527751 2.73283851,3.20860719 L2.66561022,3.19709614 C2.79422815,2.97289071 3.39978327,2.29635394 3.68037356,2.33105229 C3.81624816,2.16039587 3.65334907,2.33038244 3.62674125,2.28751249 C3.92526468,1.97864595 4.01910097,2.06931248 4.22053559,2.01367819 C4.43765131,1.88481001 4.03411461,2.06405763 4.13704242,1.96454982 C4.51263658,1.8687119 4.40311973,1.74651659 4.89298545,1.69788871 C4.94469943,1.72724891 4.77312532,1.74326354 4.73008602,1.78138188 C5.04287253,1.62824159 5.72007658,1.66319019 6.16014665,1.86629307 C6.67036452,2.10492852 7.24397349,2.80999128 7.26666082,3.47334927 L7.2924346,3.48027273 C7.27942241,3.74401434 7.33280482,4.04904404 7.24013648,4.32913401 L7.30277736,4.19642916 C7.31028461,4.3979476 7.24397332,4.4958708 7.18400169,4.66902952 Z"
             id="path2536"
             fill="#FFFFFF" />
        </g>
        <rect
           id="rect11806"
           fill="#D0DFED"
           x="2"
           y="4"
           width="12"
           height="9" />
        <polygon
           id="polygon11815"
           fill="#CDDDEA"
           points="16 8 -8.8817842e-16 8 1.5 4 14.5 4" />
        <polygon
           id="polygon5550"
           fill="#FFFFFF"
           points="15 7 1 7 2 4 14 4" />
      </g>
    </g>
  </g>
</svg>
